<svg width="264" height="218" viewBox="0 0 264 218" fill="none" xmlns="http://www.w3.org/2000/svg">
<path d="M8 157.5L131.842 86L255.683 157.5" stroke="white" stroke-width="15" stroke-linecap="round"/>
<path d="M171.5 75.5V106V108.968L201 126V75.5H171.5Z" fill="white"/>
<path d="M205.674 16C225.525 9.67058 232.426 5.03108 233.93 2.30476C233.854 1.43725 233.766 0.663578 233.674 0C234.282 0.467913 234.517 1.24059 233.93 2.30476C234.546 9.28121 234.443 22.3272 230.174 33C224.174 48 224.674 51.5 210.674 56C196.674 60.5 196.674 59.5 186.674 66C187.174 61.3333 190.974 49.4 202.174 39C213.374 28.6 218.174 23 219.174 21.5C215.84 23.6667 207.374 29.5 200.174 35.5C191.174 43 185.174 54 181.174 62.5C180.94 62.2384 180.413 61.4723 180.174 60.5C177.174 49.3333 178.074 24.8 205.674 16Z" fill="#A2B953"/>
<rect x="97" y="143" width="32.3276" height="32.3276" fill="#FDFDFD"/>
<rect x="97" y="185.672" width="32.3276" height="32.3276" fill="#FDFDFD"/>
<rect x="139.672" y="143" width="32.3276" height="32.3276" fill="#FDFDFD"/>
<rect x="139.672" y="185.672" width="32.3276" height="32.3276" fill="#FDFDFD"/>
</svg>
