<svg width="959" height="307" viewBox="0 0 959 307" fill="none" xmlns="http://www.w3.org/2000/svg">
<path d="M15.7258 157.5L123.842 95.0793L231.957 157.5" stroke="white" stroke-width="13.0952" stroke-linecap="round"/>
<path d="M158.464 85.9126V112.54V115.131L184.218 130V85.9126H158.464Z" fill="white"/>
<path d="M188.298 33.9683C205.629 28.4426 211.654 24.3922 212.967 22.0121C212.9 21.2547 212.823 20.5793 212.743 20C213.274 20.4085 213.479 21.0831 212.967 22.0121C213.504 28.1026 213.414 39.492 209.687 48.8095C204.449 61.9048 204.886 64.9603 192.663 68.8889C180.441 72.8175 180.441 71.9444 171.711 77.619C172.147 73.545 175.465 63.127 185.243 54.0476C195.021 44.9683 199.211 40.0794 200.084 38.7698C197.174 40.6614 189.782 45.754 183.497 50.9921C175.64 57.5397 170.401 67.1429 166.909 74.5635C166.705 74.3351 166.245 73.6663 166.036 72.8175C163.417 63.0688 164.203 41.6508 188.298 33.9683Z" fill="#A2B953"/>
<rect x="79" y="165" width="40.9483" height="40.9483" fill="#FDFDFD"/>
<rect x="79" y="219.052" width="40.9483" height="40.9483" fill="#FDFDFD"/>
<rect x="133.052" y="165" width="40.9483" height="40.9483" fill="#FDFDFD"/>
<rect x="133.052" y="219.052" width="40.9483" height="40.9483" fill="#FDFDFD"/>
<path d="M286.774 259.046C277.339 259.046 269.61 256.886 263.585 252.567C257.674 248.133 254.718 241.995 254.718 234.152C254.718 226.081 257.219 219.886 262.221 215.566C267.336 211.133 274.839 207.893 284.728 205.847L314.226 200.05C314.226 194.139 312.862 189.705 310.134 186.75C307.52 183.681 303.712 182.146 298.71 182.146C293.822 182.146 290.014 183.283 287.286 185.556C284.558 187.716 282.796 190.956 282 195.275L256.253 194.082C257.958 184.079 262.448 176.519 269.723 171.404C277.112 166.175 286.774 163.56 298.71 163.56C312.351 163.56 322.581 166.8 329.402 173.28C336.336 179.759 339.803 189.251 339.803 201.755V232.958C339.803 235.573 340.201 237.335 340.996 238.244C341.906 239.04 343.213 239.437 344.918 239.437H347.476V257C346.68 257.227 345.373 257.455 343.554 257.682C341.849 257.909 340.144 258.023 338.439 258.023C334.801 258.023 331.391 257.398 328.208 256.147C325.139 254.897 322.638 252.794 320.706 249.839C318.773 246.769 317.807 242.45 317.807 236.88L320.024 238.585C318.887 242.677 316.841 246.258 313.885 249.327C311.043 252.396 307.292 254.783 302.632 256.488C298.085 258.194 292.799 259.046 286.774 259.046ZM292.913 241.484C297.118 241.484 300.813 240.688 303.996 239.096C307.179 237.391 309.679 234.947 311.498 231.765C313.317 228.582 314.226 224.83 314.226 220.511V216.078L293.424 220.511C289.332 221.307 286.206 222.671 284.046 224.603C282 226.422 280.977 228.809 280.977 231.765C280.977 234.834 282 237.221 284.046 238.926C286.092 240.631 289.048 241.484 292.913 241.484ZM398.285 259.046C388.85 259.046 380.95 257.739 374.584 255.124C368.219 252.396 363.331 248.759 359.92 244.212C356.624 239.551 354.748 234.208 354.294 228.184L380.211 227.331C381.007 231.651 382.826 235.004 385.667 237.391C388.509 239.778 392.715 240.972 398.285 240.972C402.832 240.972 406.356 240.233 408.857 238.755C411.471 237.278 412.779 235.004 412.779 231.935C412.779 230.003 412.324 228.411 411.414 227.161C410.505 225.797 408.686 224.66 405.958 223.751C403.344 222.727 399.422 221.818 394.193 221.022C384.531 219.317 376.971 217.328 371.515 215.055C366.059 212.781 362.194 209.826 359.92 206.188C357.647 202.55 356.51 198.117 356.51 192.888C356.51 184.135 359.864 177.088 366.57 171.745C373.391 166.289 383.564 163.56 397.092 163.56C405.731 163.56 412.949 164.925 418.746 167.653C424.657 170.381 429.204 174.132 432.387 178.906C435.684 183.567 437.73 188.91 438.526 194.934L412.779 195.957C412.437 193.002 411.528 190.501 410.05 188.455C408.686 186.295 406.924 184.647 404.765 183.51C402.605 182.26 399.99 181.635 396.921 181.635C392.374 181.635 388.85 182.601 386.349 184.533C383.962 186.352 382.769 188.796 382.769 191.865C382.769 194.139 383.28 196.014 384.303 197.492C385.44 198.856 387.259 199.993 389.76 200.902C392.26 201.812 395.614 202.55 399.82 203.119C409.596 204.483 417.325 206.415 423.009 208.916C428.806 211.303 432.956 214.316 435.456 217.953C437.957 221.591 439.208 226.081 439.208 231.423C439.208 237.335 437.502 242.336 434.092 246.428C430.682 250.521 425.908 253.647 419.769 255.806C413.745 257.966 406.583 259.046 398.285 259.046ZM494.031 259.046C484.596 259.046 476.695 257.739 470.33 255.124C463.964 252.396 459.076 248.759 455.666 244.212C452.369 239.551 450.494 234.208 450.039 228.184L475.956 227.331C476.752 231.651 478.571 235.004 481.413 237.391C484.255 239.778 488.461 240.972 494.031 240.972C498.577 240.972 502.101 240.233 504.602 238.755C507.217 237.278 508.524 235.004 508.524 231.935C508.524 230.003 508.069 228.411 507.16 227.161C506.25 225.797 504.432 224.66 501.703 223.751C499.089 222.727 495.167 221.818 489.938 221.022C480.276 219.317 472.717 217.328 467.26 215.055C461.804 212.781 457.939 209.826 455.666 206.188C453.392 202.55 452.256 198.117 452.256 192.888C452.256 184.135 455.609 177.088 462.316 171.745C469.136 166.289 479.31 163.56 492.837 163.56C501.476 163.56 508.694 164.925 514.492 167.653C520.403 170.381 524.95 174.132 528.133 178.906C531.429 183.567 533.475 188.91 534.271 194.934L508.524 195.957C508.183 193.002 507.273 190.501 505.796 188.455C504.432 186.295 502.67 184.647 500.51 183.51C498.35 182.26 495.736 181.635 492.666 181.635C488.12 181.635 484.596 182.601 482.095 184.533C479.708 186.352 478.514 188.796 478.514 191.865C478.514 194.139 479.026 196.014 480.049 197.492C481.185 198.856 483.004 199.993 485.505 200.902C488.006 201.812 491.359 202.55 495.565 203.119C505.341 204.483 513.071 206.415 518.755 208.916C524.552 211.303 528.701 214.316 531.202 217.953C533.703 221.591 534.953 226.081 534.953 231.423C534.953 237.335 533.248 242.336 529.838 246.428C526.427 250.521 521.653 253.647 515.515 255.806C509.49 257.966 502.329 259.046 494.031 259.046ZM580.739 259.046C571.304 259.046 563.915 256.034 558.573 250.009C553.344 243.871 550.729 235.345 550.729 224.433V165.607H576.306V218.465C576.306 225.512 577.386 230.685 579.545 233.981C581.705 237.164 585.115 238.755 589.776 238.755C595.005 238.755 599.04 236.993 601.882 233.47C604.838 229.832 606.315 224.433 606.315 217.271V165.607H631.892V257H608.532L607.85 230.741L611.09 231.423C609.726 240.517 606.486 247.395 601.371 252.055C596.255 256.716 589.378 259.046 580.739 259.046ZM654.301 257V165.607H678.513L679.366 192.206L677.49 191.695C678.968 182.487 681.582 175.837 685.334 171.745C689.085 167.653 694.257 165.607 700.85 165.607H709.205V186.75H700.85C696.076 186.75 692.154 187.375 689.085 188.625C686.016 189.876 683.685 191.865 682.094 194.593C680.616 197.321 679.877 201.016 679.877 205.676V257H654.301ZM761 259.046C751.679 259.046 743.551 257.114 736.617 253.249C729.797 249.27 724.454 243.7 720.589 236.539C716.838 229.377 714.962 220.966 714.962 211.303C714.962 201.641 716.838 193.286 720.589 186.238C724.454 179.077 729.797 173.507 736.617 169.528C743.437 165.55 751.508 163.56 760.83 163.56C769.923 163.56 777.824 165.55 784.53 169.528C791.237 173.507 796.409 179.191 800.047 186.579C803.798 193.968 805.674 202.778 805.674 213.008V218.124H741.391C741.732 225.399 743.665 230.798 747.189 234.322C750.826 237.846 755.601 239.608 761.512 239.608C765.831 239.608 769.412 238.699 772.254 236.88C775.209 235.061 777.312 232.276 778.563 228.525L804.31 230.059C801.922 239.153 796.864 246.258 789.134 251.373C781.404 256.488 772.026 259.046 761 259.046ZM741.391 202.437H779.415C779.074 195.73 777.198 190.728 773.788 187.432C770.492 184.135 766.172 182.487 760.83 182.487C755.487 182.487 751.054 184.249 747.53 187.773C744.12 191.183 742.073 196.071 741.391 202.437ZM854.048 259.046C846.318 259.046 839.611 257.114 833.928 253.249C828.358 249.27 824.038 243.757 820.969 236.709C818.013 229.548 816.536 221.079 816.536 211.303C816.536 201.527 818.07 193.116 821.139 186.068C824.209 178.906 828.528 173.393 834.098 169.528C839.782 165.55 846.432 163.56 854.048 163.56C860.527 163.56 866.097 164.925 870.758 167.653C875.532 170.267 879.113 173.905 881.5 178.565V135.938H907.077V257H882.694L882.182 243.53C879.681 248.418 875.93 252.226 870.928 254.954C866.04 257.682 860.414 259.046 854.048 259.046ZM862.403 239.437C866.495 239.437 869.962 238.358 872.804 236.198C875.646 234.038 877.806 230.912 879.283 226.82C880.761 222.614 881.5 217.442 881.5 211.303C881.5 205.051 880.761 199.879 879.283 195.787C877.806 191.581 875.646 188.455 872.804 186.409C869.962 184.249 866.495 183.169 862.403 183.169C856.378 183.169 851.604 185.727 848.08 190.842C844.556 195.844 842.794 202.664 842.794 211.303C842.794 219.829 844.556 226.649 848.08 231.765C851.718 236.88 856.492 239.437 862.403 239.437ZM924.603 257V230.912H952.396V257H924.603Z" fill="white"/>
</svg>
