<svg width="977" height="94" viewBox="0 0 977 94" fill="none" xmlns="http://www.w3.org/2000/svg">
<path d="M50.5688 18.439L0 69.0078H10.7036L50.5688 29.1425L90.4341 69.0078H100.919L85.41 53.4986V39.7369H77.5462V45.4163L50.5688 18.439Z" fill="url(#paint0_linear_84_58)"/>
<path d="M50.569 40.9385L15.9463 75.5612H85.1917L50.569 40.9385Z" fill="#555555"/>
<path d="M132.203 43.57H158.946V51.7925H132.203V43.57ZM132.972 66.6238H163.326V75H122.982V21.2078H162.25V29.584H132.972V66.6238ZM182.147 75V21.2078H192.137V66.5469H220.263V75H182.147ZM245.056 43.57H271.798V51.7925H245.056V43.57ZM245.824 66.6238H276.179V75H235.834V21.2078H275.103V29.584H245.824V66.6238ZM310.157 75L286.642 21.2078H297.477L318.456 69.8513H312.231L333.441 21.2078H343.431L319.993 75H310.157ZM347.458 75L371.664 21.2078H381.501L405.784 75H395.333L374.508 26.5102H378.504L357.755 75H347.458ZM358.601 62.551L361.29 54.7127H390.338L393.028 62.551H358.601ZM428.52 75V29.6609H410.692V21.2078H456.339V29.6609H438.51V75H428.52ZM480.742 43.57H507.484V51.7925H480.742V43.57ZM481.51 66.6238H511.865V75H471.52V21.2078H510.789V29.584H481.51V66.6238Z" fill="white"/>
<path d="M543.818 75L568.025 21.2078H577.861L602.144 75H591.693L570.868 26.5102H574.864L554.115 75H543.818ZM554.961 62.551L557.65 54.7127H586.698L589.388 62.551H554.961ZM633.345 75.7685C629.144 75.7685 625.123 75.1793 621.281 74.001C617.438 72.7715 614.39 71.2089 612.136 69.3134L615.594 61.552C617.746 63.2426 620.41 64.6514 623.586 65.7785C626.762 66.9056 630.015 67.4691 633.345 67.4691C636.163 67.4691 638.443 67.1617 640.185 66.5469C641.927 65.9322 643.207 65.1125 644.027 64.0879C644.847 63.012 645.257 61.8081 645.257 60.4761C645.257 58.8367 644.667 57.5304 643.489 56.557C642.311 55.5324 640.774 54.7383 638.878 54.1747C637.034 53.56 634.959 52.9964 632.654 52.4841C630.4 51.9718 628.12 51.3827 625.814 50.7167C623.56 49.9994 621.485 49.1029 619.59 48.0271C617.746 46.9 616.234 45.4143 615.056 43.57C613.878 41.7257 613.289 39.3691 613.289 36.5002C613.289 33.58 614.057 30.916 615.594 28.5082C617.182 26.0491 619.564 24.1024 622.741 22.6679C625.968 21.1822 630.041 20.4394 634.959 20.4394C638.187 20.4394 641.389 20.8492 644.565 21.6689C647.741 22.4886 650.508 23.6669 652.864 25.2038L649.714 32.9653C647.306 31.5308 644.821 30.4806 642.26 29.8146C639.698 29.0973 637.239 28.7387 634.882 28.7387C632.116 28.7387 629.862 29.0717 628.12 29.7377C626.429 30.4037 625.174 31.2746 624.354 32.3505C623.586 33.4263 623.202 34.6559 623.202 36.0391C623.202 37.6785 623.765 39.0105 624.892 40.0351C626.071 41.0085 627.582 41.7769 629.426 42.3405C631.322 42.904 633.422 43.4675 635.728 44.0311C638.033 44.5434 640.313 45.1325 642.567 45.7985C644.872 46.4645 646.947 47.3355 648.791 48.4113C650.687 49.4871 652.198 50.9472 653.325 52.7915C654.504 54.6358 655.093 56.9668 655.093 59.7845C655.093 62.6534 654.299 65.3174 652.711 67.7765C651.174 70.1843 648.791 72.1311 645.564 73.6168C642.336 75.0512 638.264 75.7685 633.345 75.7685ZM689.359 75.7685C685.158 75.7685 681.136 75.1793 677.294 74.001C673.452 72.7715 670.404 71.2089 668.149 69.3134L671.607 61.552C673.759 63.2426 676.423 64.6514 679.599 65.7785C682.776 66.9056 686.029 67.4691 689.359 67.4691C692.177 67.4691 694.456 67.1617 696.198 66.5469C697.94 65.9322 699.221 65.1125 700.04 64.0879C700.86 63.012 701.27 61.8081 701.27 60.4761C701.27 58.8367 700.681 57.5304 699.503 56.557C698.324 55.5324 696.787 54.7383 694.892 54.1747C693.047 53.56 690.973 52.9964 688.667 52.4841C686.413 51.9718 684.133 51.3827 681.828 50.7167C679.574 49.9994 677.499 49.1029 675.603 48.0271C673.759 46.9 672.248 45.4143 671.07 43.57C669.891 41.7257 669.302 39.3691 669.302 36.5002C669.302 33.58 670.071 30.916 671.607 28.5082C673.196 26.0491 675.578 24.1024 678.754 22.6679C681.982 21.1822 686.055 20.4394 690.973 20.4394C694.2 20.4394 697.402 20.8492 700.578 21.6689C703.755 22.4886 706.521 23.6669 708.878 25.2038L705.727 32.9653C703.319 31.5308 700.835 30.4806 698.273 29.8146C695.711 29.0973 693.252 28.7387 690.896 28.7387C688.129 28.7387 685.875 29.0717 684.133 29.7377C682.443 30.4037 681.188 31.2746 680.368 32.3505C679.599 33.4263 679.215 34.6559 679.215 36.0391C679.215 37.6785 679.779 39.0105 680.906 40.0351C682.084 41.0085 683.595 41.7769 685.44 42.3405C687.335 42.904 689.436 43.4675 691.741 44.0311C694.046 44.5434 696.326 45.1325 698.58 45.7985C700.886 46.4645 702.961 47.3355 704.805 48.4113C706.7 49.4871 708.212 50.9472 709.339 52.7915C710.517 54.6358 711.106 56.9668 711.106 59.7845C711.106 62.6534 710.312 65.3174 708.724 67.7765C707.187 70.1843 704.805 72.1311 701.577 73.6168C698.35 75.0512 694.277 75.7685 689.359 75.7685ZM751.827 75.7685C744.45 75.7685 738.661 73.6936 734.46 69.5439C730.311 65.3943 728.236 59.4003 728.236 51.562V21.2078H738.226V51.1778C738.226 56.7107 739.404 60.7323 741.761 63.2426C744.168 65.7529 747.55 67.008 751.904 67.008C756.259 67.008 759.614 65.7529 761.971 63.2426C764.328 60.7323 765.506 56.7107 765.506 51.1778V21.2078H775.342V51.562C775.342 59.4003 773.242 65.3943 769.041 69.5439C764.891 73.6936 759.153 75.7685 751.827 75.7685ZM797.018 75V21.2078H819.149C823.914 21.2078 827.987 21.9763 831.368 23.5132C834.8 25.0501 837.439 27.253 839.283 30.122C841.127 32.9909 842.049 36.3977 842.049 40.3425C842.049 44.2872 841.127 47.6941 839.283 50.563C837.439 53.3807 834.8 55.558 831.368 57.0949C827.987 58.5806 823.914 59.3234 819.149 59.3234H802.551L807.008 54.7895V75H797.018ZM832.213 75L818.611 55.4811H829.293L842.972 75H832.213ZM807.008 55.8654L802.551 51.1009H818.688C823.094 51.1009 826.398 50.1531 828.601 48.2576C830.856 46.3621 831.983 43.7237 831.983 40.3425C831.983 36.91 830.856 34.2716 828.601 32.4273C826.398 30.583 823.094 29.6609 818.688 29.6609H802.551L807.008 24.7427V55.8654ZM870.132 43.57H896.875V51.7925H870.132V43.57ZM870.901 66.6238H901.255V75H860.911V21.2078H900.179V29.584H870.901V66.6238ZM920.076 75V21.2078H943.591C949.431 21.2078 954.554 22.3349 958.96 24.5891C963.366 26.8432 966.799 29.9683 969.258 33.9643C971.717 37.9602 972.946 42.6735 972.946 48.1039C972.946 53.4831 971.717 58.1964 969.258 62.2436C966.799 66.2396 963.366 69.3646 958.96 71.6188C954.554 73.8729 949.431 75 943.591 75H920.076ZM930.066 66.5469H943.13C947.177 66.5469 950.661 65.7785 953.581 64.2416C956.552 62.7046 958.832 60.553 960.42 57.7865C962.06 55.0201 962.879 51.7925 962.879 48.1039C962.879 44.3641 962.06 41.1365 960.42 38.4213C958.832 35.6549 956.552 33.5032 953.581 31.9663C950.661 30.4293 947.177 29.6609 943.13 29.6609H930.066V66.5469Z" fill="white"/>
<defs>
<linearGradient id="paint0_linear_84_58" x1="83.1164" y1="18.439" x2="12.6695" y2="85.3908" gradientUnits="userSpaceOnUse">
<stop stop-color="#E6C65F"/>
<stop offset="1" stop-color="#B99757"/>
</linearGradient>
</defs>
</svg>
