<svg width="976" height="652" viewBox="0 0 976 652" fill="none" xmlns="http://www.w3.org/2000/svg">
<path d="M488.017 0L256.517 231.5H305.517L488.017 49L670.517 231.5H718.517L647.517 160.5V97.5H611.517V123.5L488.017 0Z" fill="url(#paint0_linear_84_25)"/>
<path d="M488.017 103L329.517 261.5H646.517L488.017 103Z" fill="#555555"/>
<path d="M198.732 359.054H240.803V371.99H198.732V359.054ZM199.941 395.322H247.694V408.5H184.225V323.874H246.002V337.051H199.941V395.322ZM277.304 408.5V323.874H293.02V395.202H337.268V408.5H277.304ZM376.272 359.054H418.344V371.99H376.272V359.054ZM377.481 395.322H425.235V408.5H361.765V323.874H423.542V337.051H377.481V395.322ZM478.689 408.5L441.695 323.874H458.741L491.746 400.4H481.953L515.32 323.874H531.036L494.163 408.5H478.689ZM537.372 408.5L575.454 323.874H590.928L629.131 408.5H612.689L579.927 332.216H586.213L553.572 408.5H537.372ZM554.902 388.915L559.133 376.584H604.831L609.062 388.915H554.902ZM664.9 408.5V337.172H636.852V323.874H708.663V337.172H680.616V408.5H664.9ZM747.055 359.054H789.126V371.99H747.055V359.054ZM748.264 395.322H796.017V408.5H732.548V323.874H794.325V337.051H748.264V395.322Z" fill="white"/>
<path d="M146.991 533.5L185.073 448.874H200.547L238.75 533.5H222.308L189.546 457.216H195.833L163.191 533.5H146.991ZM164.521 513.915L168.752 501.584H214.45L218.682 513.915H164.521ZM287.836 534.709C281.227 534.709 274.9 533.782 268.856 531.928C262.811 529.994 258.016 527.536 254.469 524.554L259.91 512.343C263.295 515.003 267.486 517.22 272.483 518.993C277.48 520.766 282.597 521.652 287.836 521.652C292.269 521.652 295.856 521.169 298.596 520.202C301.336 519.234 303.351 517.945 304.641 516.333C305.93 514.64 306.575 512.746 306.575 510.651C306.575 508.072 305.648 506.017 303.794 504.485C301.941 502.873 299.523 501.624 296.541 500.738C293.639 499.77 290.375 498.884 286.748 498.078C283.202 497.272 279.615 496.345 275.989 495.297C272.442 494.169 269.178 492.759 266.196 491.066C263.295 489.293 260.917 486.956 259.063 484.054C257.21 481.153 256.283 477.445 256.283 472.932C256.283 468.338 257.492 464.147 259.91 460.359C262.408 456.49 266.156 453.428 271.153 451.171C276.23 448.834 282.638 447.665 290.375 447.665C295.453 447.665 300.49 448.31 305.487 449.599C310.484 450.889 314.836 452.742 318.543 455.16L313.587 467.371C309.799 465.114 305.89 463.462 301.86 462.414C297.83 461.286 293.961 460.721 290.254 460.721C285.902 460.721 282.356 461.245 279.615 462.293C276.956 463.341 274.981 464.711 273.692 466.404C272.483 468.096 271.878 470.03 271.878 472.206C271.878 474.786 272.765 476.881 274.538 478.493C276.391 480.024 278.769 481.233 281.671 482.12C284.653 483.006 287.957 483.893 291.584 484.78C295.211 485.585 298.797 486.512 302.344 487.56C305.97 488.608 309.235 489.978 312.136 491.67C315.118 493.363 317.496 495.66 319.269 498.561C321.122 501.463 322.049 505.13 322.049 509.563C322.049 514.076 320.8 518.267 318.302 522.136C315.884 525.924 312.136 528.987 307.058 531.324C301.981 533.581 295.573 534.709 287.836 534.709ZM375.957 534.709C369.348 534.709 363.021 533.782 356.977 531.928C350.932 529.994 346.136 527.536 342.59 524.554L348.03 512.343C351.415 515.003 355.606 517.22 360.603 518.993C365.6 520.766 370.718 521.652 375.957 521.652C380.39 521.652 383.976 521.169 386.717 520.202C389.457 519.234 391.472 517.945 392.761 516.333C394.051 514.64 394.696 512.746 394.696 510.651C394.696 508.072 393.769 506.017 391.915 504.485C390.061 502.873 387.643 501.624 384.661 500.738C381.76 499.77 378.496 498.884 374.869 498.078C371.323 497.272 367.736 496.345 364.109 495.297C360.563 494.169 357.299 492.759 354.317 491.066C351.415 489.293 349.038 486.956 347.184 484.054C345.33 481.153 344.403 477.445 344.403 472.932C344.403 468.338 345.612 464.147 348.03 460.359C350.529 456.49 354.277 453.428 359.274 451.171C364.351 448.834 370.758 447.665 378.496 447.665C383.573 447.665 388.611 448.31 393.608 449.599C398.605 450.889 402.957 452.742 406.664 455.16L401.707 467.371C397.919 465.114 394.011 463.462 389.981 462.414C385.951 461.286 382.082 460.721 378.375 460.721C374.023 460.721 370.476 461.245 367.736 462.293C365.076 463.341 363.102 464.711 361.812 466.404C360.603 468.096 359.999 470.03 359.999 472.206C359.999 474.786 360.885 476.881 362.659 478.493C364.512 480.024 366.89 481.233 369.791 482.12C372.773 483.006 376.078 483.893 379.705 484.78C383.332 485.585 386.918 486.512 390.464 487.56C394.091 488.608 397.355 489.978 400.257 491.67C403.239 493.363 405.616 495.66 407.39 498.561C409.243 501.463 410.17 505.13 410.17 509.563C410.17 514.076 408.921 518.267 406.422 522.136C404.004 525.924 400.257 528.987 395.179 531.324C390.102 533.581 383.694 534.709 375.957 534.709ZM474.233 534.709C462.627 534.709 453.52 531.445 446.911 524.916C440.382 518.388 437.118 508.958 437.118 496.627V448.874H452.835V496.023C452.835 504.727 454.688 511.054 458.396 515.003C462.184 518.952 467.503 520.927 474.354 520.927C481.204 520.927 486.484 518.952 490.191 515.003C493.898 511.054 495.752 504.727 495.752 496.023V448.874H511.227V496.627C511.227 508.958 507.922 518.388 501.313 524.916C494.785 531.445 485.758 534.709 474.233 534.709ZM545.326 533.5V448.874H580.144C587.639 448.874 594.047 450.083 599.366 452.501C604.766 454.919 608.917 458.384 611.818 462.898C614.72 467.411 616.171 472.771 616.171 478.977C616.171 485.182 614.72 490.542 611.818 495.056C608.917 499.488 604.766 502.914 599.366 505.332C594.047 507.669 587.639 508.838 580.144 508.838H554.031L561.043 501.705V533.5H545.326ZM600.696 533.5L579.298 502.793H596.102L617.621 533.5H600.696ZM561.043 503.397L554.031 495.902H579.419C586.35 495.902 591.548 494.411 595.014 491.429C598.56 488.447 600.333 484.296 600.333 478.977C600.333 473.577 598.56 469.426 595.014 466.524C591.548 463.623 586.35 462.172 579.419 462.172H554.031L561.043 454.435V503.397ZM660.351 484.054H702.422V496.99H660.351V484.054ZM661.56 520.322H709.313V533.5H645.844V448.874H707.621V462.051H661.56V520.322ZM738.923 533.5V448.874H775.917C785.105 448.874 793.164 450.647 800.096 454.193C807.027 457.739 812.427 462.656 816.295 468.942C820.164 475.229 822.098 482.644 822.098 491.187C822.098 499.65 820.164 507.064 816.295 513.432C812.427 519.718 807.027 524.634 800.096 528.181C793.164 531.727 785.105 533.5 775.917 533.5H738.923ZM754.639 520.202H775.191C781.558 520.202 787.039 518.993 791.633 516.575C796.308 514.157 799.894 510.772 802.393 506.42C804.972 502.067 806.261 496.99 806.261 491.187C806.261 485.303 804.972 480.226 802.393 475.954C799.894 471.602 796.308 468.217 791.633 465.799C787.039 463.381 781.558 462.172 775.191 462.172H754.639V520.202Z" fill="white"/>
<path d="M276.729 633.5V583.013H297.5C301.972 583.013 305.795 583.734 308.968 585.177C312.19 586.619 314.666 588.687 316.397 591.379C318.128 594.072 318.994 597.269 318.994 600.972C318.994 604.674 318.128 607.872 316.397 610.564C314.666 613.209 312.19 615.252 308.968 616.695C305.795 618.089 301.972 618.787 297.5 618.787H281.921L286.105 614.531V633.5H276.729ZM309.762 633.5L296.996 615.18H307.021L319.859 633.5H309.762ZM286.105 615.541L281.921 611.069H297.068C301.203 611.069 304.304 610.18 306.372 608.401C308.487 606.622 309.545 604.145 309.545 600.972C309.545 597.75 308.487 595.274 306.372 593.543C304.304 591.812 301.203 590.946 297.068 590.946H281.921L286.105 586.331V615.541ZM366.123 634.221C362.18 634.221 358.55 633.572 355.232 632.274C351.914 630.976 349.029 629.173 346.577 626.865C344.125 624.508 342.226 621.768 340.879 618.642C339.533 615.469 338.86 612.007 338.86 608.256C338.86 604.506 339.533 601.068 340.879 597.943C342.226 594.769 344.125 592.028 346.577 589.72C349.029 587.364 351.914 585.537 355.232 584.239C358.55 582.941 362.156 582.292 366.051 582.292C369.994 582.292 373.6 582.941 376.87 584.239C380.187 585.537 383.072 587.364 385.524 589.72C387.977 592.028 389.876 594.769 391.222 597.943C392.569 601.068 393.242 604.506 393.242 608.256C393.242 612.007 392.569 615.469 391.222 618.642C389.876 621.816 387.977 624.557 385.524 626.865C383.072 629.173 380.187 630.976 376.87 632.274C373.6 633.572 370.018 634.221 366.123 634.221ZM366.051 625.999C368.599 625.999 370.955 625.566 373.119 624.701C375.283 623.835 377.158 622.609 378.745 621.022C380.332 619.388 381.558 617.512 382.423 615.397C383.337 613.233 383.794 610.853 383.794 608.256C383.794 605.66 383.337 603.304 382.423 601.188C381.558 599.024 380.332 597.149 378.745 595.562C377.158 593.928 375.283 592.677 373.119 591.812C370.955 590.947 368.599 590.514 366.051 590.514C363.502 590.514 361.146 590.947 358.983 591.812C356.867 592.677 354.992 593.928 353.357 595.562C351.77 597.149 350.52 599.024 349.606 601.188C348.741 603.304 348.308 605.66 348.308 608.256C348.308 610.805 348.741 613.161 349.606 615.325C350.52 617.488 351.77 619.388 353.357 621.022C354.944 622.609 356.819 623.835 358.983 624.701C361.146 625.566 363.502 625.999 366.051 625.999ZM439.82 634.221C435.877 634.221 432.247 633.572 428.929 632.274C425.611 630.976 422.726 629.173 420.274 626.865C417.822 624.508 415.922 621.768 414.576 618.642C413.23 615.469 412.557 612.007 412.557 608.256C412.557 604.506 413.23 601.068 414.576 597.943C415.922 594.769 417.822 592.028 420.274 589.72C422.726 587.364 425.611 585.537 428.929 584.239C432.247 582.941 435.853 582.292 439.748 582.292C443.69 582.292 447.297 582.941 450.566 584.239C453.884 585.537 456.769 587.364 459.221 589.72C461.673 592.028 463.573 594.769 464.919 597.943C466.265 601.068 466.938 604.506 466.938 608.256C466.938 612.007 466.265 615.469 464.919 618.642C463.573 621.816 461.673 624.557 459.221 626.865C456.769 629.173 453.884 630.976 450.566 632.274C447.297 633.572 443.714 634.221 439.82 634.221ZM439.748 625.999C442.296 625.999 444.652 625.566 446.816 624.701C448.979 623.835 450.855 622.609 452.441 621.022C454.028 619.388 455.254 617.512 456.12 615.397C457.033 613.233 457.49 610.853 457.49 608.256C457.49 605.66 457.033 603.304 456.12 601.188C455.254 599.024 454.028 597.149 452.441 595.562C450.855 593.928 448.979 592.677 446.816 591.812C444.652 590.947 442.296 590.514 439.748 590.514C437.199 590.514 434.843 590.947 432.679 591.812C430.564 592.677 428.688 593.928 427.054 595.562C425.467 597.149 424.217 599.024 423.303 601.188C422.438 603.304 422.005 605.66 422.005 608.256C422.005 610.805 422.438 613.161 423.303 615.325C424.217 617.488 425.467 619.388 427.054 621.022C428.64 622.609 430.516 623.835 432.679 624.701C434.843 625.566 437.199 625.999 439.748 625.999ZM498.442 606.237H523.614V614.171H498.442V606.237ZM499.236 633.5H489.859V583.013H526.715V590.874H499.236V633.5ZM548.765 633.5V583.013H558.141V633.5H548.765ZM584.779 633.5V583.013H592.497L624.159 621.888H620.337V583.013H629.641V633.5H621.924L590.261 594.625H594.083V633.5H584.779ZM679.736 634.221C675.794 634.221 672.163 633.596 668.846 632.346C665.576 631.048 662.715 629.245 660.263 626.937C657.811 624.581 655.911 621.816 654.565 618.642C653.219 615.469 652.545 612.007 652.545 608.256C652.545 604.506 653.219 601.044 654.565 597.87C655.911 594.697 657.811 591.956 660.263 589.648C662.763 587.292 665.672 585.489 668.99 584.239C672.308 582.941 675.938 582.292 679.881 582.292C684.16 582.292 688.007 582.989 691.421 584.383C694.883 585.778 697.792 587.821 700.148 590.514L694.233 596.284C692.262 594.312 690.122 592.87 687.814 591.956C685.554 590.995 683.054 590.514 680.313 590.514C677.669 590.514 675.217 590.947 672.957 591.812C670.697 592.677 668.749 593.904 667.115 595.49C665.48 597.077 664.206 598.952 663.292 601.116C662.426 603.28 661.994 605.66 661.994 608.256C661.994 610.805 662.426 613.161 663.292 615.325C664.206 617.488 665.48 619.388 667.115 621.022C668.749 622.609 670.673 623.835 672.885 624.701C675.096 625.566 677.549 625.999 680.241 625.999C682.742 625.999 685.146 625.614 687.454 624.845C689.81 624.028 692.046 622.681 694.161 620.806L699.499 627.802C696.854 629.918 693.777 631.529 690.267 632.635C686.805 633.692 683.295 634.221 679.736 634.221ZM690.627 626.576V607.679H699.499V627.802L690.627 626.576Z" fill="#B38F45"/>
<defs>
<linearGradient id="paint0_linear_84_25" x1="637.017" y1="8.36651e-06" x2="314.517" y2="306.5" gradientUnits="userSpaceOnUse">
<stop stop-color="#E6C65F"/>
<stop offset="1" stop-color="#B99757"/>
</linearGradient>
</defs>
</svg>
